<svg width="21" height="21" viewBox="0 0 21 21" fill="none" xmlns="http://www.w3.org/2000/svg">
<path d="M6.46481 14.5241L7.70221 10.8118L16.7694 1.74459C17.2576 1.25644 18.049 1.25644 18.5372 1.74459L19.2443 2.4517C19.7325 2.93985 19.7325 3.73131 19.2443 4.21947L10.1771 13.2867L6.46481 14.5241Z" stroke="white" stroke-width="1.5"/>
<path fill-rule="evenodd" clip-rule="evenodd" d="M14 1H2C0.89543 1 0 1.89543 0 3V19C0 20.1046 0.89543 21 2 21H18C19.1046 21 20 20.1046 20 19V7L18.5 8.5V19C18.5 19.2761 18.2761 19.5 18 19.5H2C1.72386 19.5 1.5 19.2761 1.5 19V3C1.5 2.72386 1.72386 2.5 2 2.5H12.5L14 1Z" fill="white"/>
</svg>
